<svg version="1.2" width="512" height="512" viewBox="0 0 512 512" xmlns="http://www.w3.org/2000/svg" xmlns:svg="http://www.w3.org/2000/svg">
  <path d="m 421.59014,150.69286 c -2.56387,1.9892 -47.8292,27.49515 -47.8292,84.20942 0,65.59936 57.59838,88.80665 59.32236,89.38128 -0.26514,1.41457 -9.15032,31.78299 -30.36844,62.72613 -18.91951,27.22991 -38.67889,54.41562 -68.73792,54.41562 -30.05904,0 -37.79478,-17.46076 -72.49529,-17.46076 C 227.66527,423.96455 215.64166,442 188.14651,442 160.65136,442 141.46663,416.80343 119.40862,385.86036 93.85848,349.52435 73.215,293.07529 73.215,239.49953 c 0,-85.93338 55.8744,-131.50815 110.86469,-131.50815 29.21916,0 53.57578,19.18474 71.92062,19.18474 17.46073,0 44.69069,-20.33404 77.93242,-20.33404 12.59823,0 57.86365,1.1493 87.65741,43.85078 z M 318.15175,70.461836 C 331.89933,54.15041 341.62429,31.51775 341.62429,8.8850877 341.62429,5.7465741 341.35902,2.5638569 340.78441,0 c -22.36743,0.83988437 -48.9785,14.896889 -65.02472,33.506948 -12.59825,14.322231 -24.35666,36.954888 -24.35666,59.896986 0,3.447941 0.57469,6.895886 0.83992,8.000996 1.41453,0.26524 3.71316,0.57465 6.01177,0.57465 20.06885,0 45.30955,-13.438129 59.89703,-31.517744 z" id="path4144" style="stroke-width:0.863278" />
</svg>