<?xml version="1.0" encoding="UTF-8"?>
<svg width="1200pt" height="1200pt" version="1.1" viewBox="0 0 1200 1200" xmlns="http://www.w3.org/2000/svg">
 <path d="m385.58 610.08c15.309-6.0156 32.246-6.457 47.852-1.25 16.895 9.8867 31.676 23.012 43.484 38.625 23.18 27.062 44.668 55.527 64.344 85.234 4.1445-142.96 4.5859-284.45 4.3125-427.38-0.68359-45.457 11.016-87.344 53.094-85.984 48.57 1.5664 62.352 15.59 62.469 90.285 0.085937 53.129 0.66016 220.08-0.11719 266.94-1.0391 62.352-0.39453 161.7 0 168.35 12.469-18.703 27.309-42.953 36.375-59.234 48.219-86.625 64.172-101.58 94.094-102.34 20.695-0.52344 51.906 11.914 59.438 33.75 8.4883 24.617-10.5 52.238-21.938 72.75-16.656 29.875-106.09 179.41-134.95 223.76-19.297 29.664-59.316 85.688-102.1 61.031-17.711-10.219-65.074-68.539-77.438-84.23-39.238-49.805-118.37-150.11-141.07-179.26-57.68-74.051-5.8086-94.742 12.152-101.05z"/>
</svg>
