<svg version="1.2" xmlns="http://www.w3.org/2000/svg" viewBox="0 0 512 167" width="512" height="167">
	<title>beta-svg</title>
	<style>
		.s0 { fill: #ffffff } 
	</style>
	<path id="Layer" fill-rule="evenodd" class="s0" d="m57.4 163.5h-46.7q-12.1 0-10.1-12.4l18.7-133.4q1.8-11.8-5.1-17.1h63.2q11.3 0 20.6 1.8 9.4 1.7 17.3 5.9 8.1 4.2 11.9 12.2 4 7.7 2.4 18.6-1.4 9.6-8.3 19-7 9.3-18.5 14 14.5 3.7 21.8 14.6 7.5 10.7 5.2 25.1-2.4 18-13.9 30.2-11.5 11.9-26.3 16.6-14.6 4.9-32.2 4.9zm-19.7-13.8h17.4q19.5 0 28.8-9.3 9.5-9.6 12.1-27.7 2.4-17.1-6.5-24.4-9-7.6-27.9-7.6h-17.7l-8.9 64.1q-0.4 2.9 0.2 3.9 0.5 0.8 2.5 1zm32-135.4h-16.4l-7.3 53.5h15.2q30.6 0 34.6-27.3 2-13.9-4.2-20-5.9-6.2-21.9-6.2zm75.8 124.1l16.8-119.5q2-13.4-5.1-18.3h108.4l-2.7 20.7q-2.8-6.8-17.6-6.8h-48.6l-7.9 55.8h64.9l-1.9 14h-64.9l-7.4 51.9q-1.4 9.7 5.8 11.5 5.6 0.6 15.1 1 9.5 0.4 24.5-1.8 15.1-2.1 26.3-6.7 5.3-2.2 5.5 1.6 0.4 3.7-4.5 6.7-16.4 10.1-40.7 14.2-24.2 4-44.3 2-24.8-3-21.7-26.3zm258.4-137.8l-1.8 13.7h-45.2l-19.8 141.4q-0.9 4.9-6.7 8-5.5 3-11.9 3-6.1 0-11.1-2.8-5-3.1-4.2-8l19.9-141.6h-42.5q1-4.6 0.2-8-0.6-3.3-4.3-5.7zm69.7 153.1l-4.8-42.1h-58.6l-21.3 47.2q-2.2 5.3-7 6.5-4.7 1-8-2-3.2-3.3-1.2-7.8l70.7-155.1h47l21.5 144q0.8 6.7-2.7 12.2-3.6 5.5-9.2 7.7-5.5 2.2-11.5 2.4-5.8 0.2-10.2-3.2-4.3-3.7-4.7-9.8zm-16.2-139.2h-3.9l-37.2 83.1h50.9z"/>
</svg>