<svg version="1.2" xmlns="http://www.w3.org/2000/svg" viewBox="0 0 512 512" width="512" height="512">
  <path d="m24.2 39.6v39.5h54.1 54.1v35.6 35.5l49.8-0.3 49.6-0.5 0.5-74.8 0.3-74.6h-104.2-104.2zm230-37.5c-0.3 1.2-0.5 18.8-0.3 39.1l0.5 37.2 65.1 0.4 64.9 0.4v35.5 35.5l49.8-0.3 49.5-0.5 0.5-74.8 0.3-74.6h-114.6c-91.4 0-115 0.5-115.7 2.1zm-254.2 203.1v38.7h256 256v-38.7-38.8h-256-256zm29.1 181.7v120.3h230.1 230.2v-33.9-33.9h-180.1-180.1v-10.5-10.5h173.6 173.7v-31.5-31.5h-173.7-173.6v-11.3-11.3h177.7 177.6v-33.1-33.1h-227.7-227.7z" />
</svg>