<?xml version="1.0" standalone="no"?>
<!DOCTYPE svg PUBLIC "-//W3C//DTD SVG 20010904//EN" "http://www.w3.org/TR/2001/REC-SVG-20010904/DTD/svg10.dtd">
<svg version="1.0" xmlns="http://www.w3.org/2000/svg" width="2204.000000pt" height="696.000000pt" viewBox="0 0 2204.000000 696.000000" preserveAspectRatio="xMidYMid meet">
  <g transform="translate(0.000000,696.000000) scale(0.100000,-0.100000)" fill="#176FCE" stroke="none">
    <path d="M3930 5570 l0 -140 -495 0 -495 0 0 -255 0 -255 478 0 c263 0 482 -3
485 -6 11 -11 -61 -138 -118 -206 -63 -78 -180 -168 -291 -225 -158 -82 -390
-143 -546 -143 l-68 0 0 -260 0 -260 28 0 c73 1 279 22 377 40 337 60 656 211
872 411 l63 58 42 -18 c24 -10 279 -125 568 -256 289 -130 530 -239 537 -242
8 -3 55 80 128 226 l115 232 -47 20 c-766 327 -1073 463 -1073 478 1 9 9 45
19 81 l18 65 487 3 486 2 0 255 0 255 -500 0 -500 0 0 140 0 140 -285 0 -285
0 0 -140z" />
    <path d="M8250 5160 l0 -520 -115 0 -115 0 0 515 0 515 -255 0 -255 0 0 -1380
0 -1380 255 0 255 0 0 600 0 600 115 0 115 0 0 -615 0 -615 -2810 0 -2810 0 0
-90 0 -90 8405 0 8405 0 0 90 0 90 -150 0 -150 0 0 1400 0 1400 -280 0 -280 0
0 -1400 0 -1400 -1285 0 -1285 0 0 185 0 185 -980 0 -980 0 0 55 0 55 965 0
965 0 0 420 0 420 -1245 0 -1245 0 0 -195 0 -195 970 0 970 0 0 -55 0 -55
-965 0 -965 0 0 -410 0 -410 -1162 1 -1163 0 85 24 c383 105 551 271 551 545
0 154 -40 260 -136 353 -165 161 -472 251 -947 278 -548 32 -1053 -64 -1275
-240 -173 -138 -229 -402 -129 -606 76 -153 231 -255 505 -330 l86 -24 -567 0
-568 -1 0 1400 0 1400 -265 0 -265 0 0 -520z m2551 -1530 c128 -13 196 -25
277 -52 154 -49 178 -159 48 -225 -120 -61 -458 -94 -757 -74 -342 23 -489 76
-489 179 0 86 136 145 395 171 118 12 408 13 526 1z" />
    <path d="M11230 4905 l0 -775 280 0 280 0 0 290 0 290 163 2 162 3 3 268 2
267 -165 0 -165 0 0 215 0 215 -280 0 -280 0 0 -775z" />
    <path d="M14028 5668 c-474 -29 -778 -294 -778 -678 0 -275 153 -487 432 -602
139 -56 240 -73 458 -72 163 0 210 4 287 21 257 60 444 193 533 377 50 105 64
179 58 313 -10 214 -101 372 -285 493 -175 116 -415 166 -705 148z m292 -465
c100 -45 149 -114 150 -212 0 -99 -48 -164 -157 -213 -40 -18 -68 -22 -168
-22 -140 -1 -199 14 -264 70 -62 53 -84 103 -79 180 6 103 66 171 184 208 72
23 273 16 334 -11z" />
    <path d="M15430 5610 l0 -70 -170 0 -170 0 0 -32 c0 -38 18 -291 26 -365 l5
-53 155 0 154 0 0 -90 0 -90 -154 0 -155 0 -5 -52 c-8 -75 -26 -328 -26 -366
l0 -32 170 0 170 0 0 -80 0 -80 275 0 275 0 0 690 0 690 -275 0 -275 0 0 -70z" />
    <path d="M9215 5637 c-3 -7 -4 -111 -3 -232 l3 -220 309 -3 308 -2 -6 -26
c-15 -60 -50 -136 -88 -195 -113 -177 -295 -287 -531 -324 l-37 -6 2 -242 3
-242 55 3 c306 16 597 146 827 368 80 76 90 83 111 74 21 -9 563 -320 648
-371 l32 -19 124 197 c69 109 128 203 131 209 4 7 -134 89 -361 214 -202 112
-368 203 -369 204 0 1 6 36 14 79 l16 77 304 0 303 0 -2 233 -3 232 -893 3
c-717 2 -894 0 -897 -11z" />
    <path d="M6020 4299 l0 -1311 443 5 c517 6 707 24 865 83 l42 16 0 239 c0 131
-1 239 -3 239 -1 0 -47 -11 -101 -25 -141 -36 -303 -55 -518 -62 l-188 -6 0
821 0 822 345 0 345 0 0 245 0 245 -615 0 -615 0 0 -1311z" />
    <path d="M16520 5355 l0 -255 525 0 525 0 0 -202 c0 -112 -5 -245 -10 -296
-37 -345 -157 -628 -346 -814 -158 -155 -335 -234 -581 -260 l-113 -12 0 -264
0 -265 112 7 c416 27 741 167 1008 435 180 181 304 387 389 647 96 294 111
434 111 1051 l0 483 -810 0 -810 0 0 -255z" />
    <path d="M3938 3718 l-3 -243 -572 -3 -573 -2 0 -255 0 -255 1425 0 1425 0 0
255 0 255 -570 0 -570 0 0 245 0 245 -280 0 -280 0 -2 -242z" />
  </g>
</svg>