<?xml version="1.0" standalone="no"?>
<!DOCTYPE svg PUBLIC "-//W3C//DTD SVG 20010904//EN"
 "http://www.w3.org/TR/2001/REC-SVG-20010904/DTD/svg10.dtd">
<svg version="1.0" xmlns="http://www.w3.org/2000/svg"
 width="774.000000pt" height="311.000000pt" viewBox="0 0 774.000000 311.000000"
 preserveAspectRatio="xMidYMid meet">

<g transform="translate(0.000000,311.000000) scale(0.100000,-0.100000)"
fill="#000000" stroke="none">
<path d="M2557 2516 c-49 -45 -42 -137 12 -166 36 -19 96 -12 124 14 49 45 42
137 -12 166 -36 19 -96 12 -124 -14z"/>
<path d="M3392 2509 c-228 -38 -408 -201 -478 -435 -24 -78 -24 -254 -1 -343
55 -206 220 -371 427 -427 45 -12 102 -18 185 -18 108 0 128 3 205 30 107 38
184 88 256 168 207 228 202 623 -9 844 -143 149 -365 217 -585 181z m243 -153
c121 -32 238 -123 290 -226 118 -233 31 -536 -186 -645 -239 -122 -523 -33
-635 198 -131 273 5 594 286 673 60 16 183 17 245 0z"/>
<path d="M4636 2504 c-139 -27 -248 -100 -289 -193 -30 -68 -27 -176 8 -247
50 -101 145 -155 378 -214 194 -49 256 -72 300 -115 156 -152 -41 -348 -309
-307 -144 23 -240 99 -268 215 -7 28 -7 28 -84 25 l-77 -3 2 -43 c4 -97 96
-223 199 -275 111 -56 240 -76 375 -58 168 22 280 87 346 199 25 42 28 57 28
137 0 114 -24 168 -104 231 -66 51 -144 82 -334 130 -241 60 -317 112 -317
214 0 64 34 111 107 147 53 26 67 28 168 28 94 0 118 -4 162 -24 64 -28 127
-95 144 -150 l12 -41 84 0 84 0 -7 38 c-39 230 -309 366 -608 306z"/>
<path d="M1578 2193 l-328 -207 0 -75 0 -76 322 -200 c176 -110 327 -204 334
-208 11 -6 14 8 14 75 l0 83 -256 160 c-140 88 -257 162 -259 165 -2 3 112 78
253 166 l257 161 3 81 c2 45 -1 82 -5 81 -4 0 -155 -93 -335 -206z"/>
<path d="M5810 2322 l0 -78 260 -163 c143 -89 260 -166 260 -169 0 -4 -116
-79 -258 -167 l-257 -161 -3 -82 c-2 -45 0 -82 3 -82 3 0 154 93 335 206 l331
207 -3 81 -3 80 -325 203 c-178 112 -328 203 -332 203 -4 0 -8 -35 -8 -78z"/>
<path d="M2550 1730 l0 -420 75 0 75 0 0 420 0 420 -75 0 -75 0 0 -420z"/>
</g>
</svg>
