<svg version="1.2" viewBox="0 0 512 512" width="512" height="512" xmlns="http://www.w3.org/2000/svg" xmlns:svg="http://www.w3.org/2000/svg">
	<title>We've Met</title>
	<g>
		<path fill="#1c1c1b" d="m256 439.8c-102.4 0-185.1-82.4-185.1-184.3 0-102 82.7-184.4 185.1-184.4 102.4 0 185.1 82.4 185.1 184.4 0 101.9-82.7 184.3-185.1 184.3z" />
		<path fill="#7c7b7b" d="m256 465.2c-116 0-209.7-93.8-209.7-209.7 0-116 93.7-209.8 209.7-209.8 116 0 209.7 93.8 209.7 209.8 0 115.9-93.7 209.7-209.7 209.7zm206.7-209.7c0-114.4-92.4-206.8-206.7-206.8-114.3 0-206.7 92.4-206.7 206.8 0 114.3 92.4 206.7 206.7 206.7 114.3 0 206.7-92.4 206.7-206.7z" />
		<path fill="#b2b2b2" d="m256 488.3c-128.8 0-232.9-104.1-232.9-232.8 0-128.8 104.1-232.9 232.9-232.9 128.8 0 232.9 104.1 232.9 232.9 0 128.7-104.1 232.8-232.9 232.8zm229.9-232.8c0-127.2-102.8-229.9-229.9-229.9-127.1 0-229.9 102.7-229.9 229.9 0 127.1 102.8 229.8 229.9 229.8 127.1 0 229.9-102.7 229.9-229.8z" />
		<path fill="#e3e3e3" d="m256 511.5c-141.6 0-256-114.5-256-256 0-141.6 114.4-256 256-256 141.6 0 256 114.4 256 256 0 141.5-114.4 256-256 256zm253-256c0-140-113.1-253.1-253-253.1-139.9 0-253 113.1-253 253.1 0 139.9 113.1 253 253 253 139.9 0 253-113.1 253-253z" />
	</g>
	<g fill="#ffffff">
		<path d="m185.4 231.5c-2.9 6.2-8.1 16.4-12.4 23.1-4 6.8-5.4 6.9-6 6.9h-0.1q0 0 0 0c-0.6 0-1-0.2-1.2-0.4-0.6-0.7-0.6-1.4-0.6-4v-1.2c0-7-0.1-12.2-0.5-16.5-0.6-10.7-1.9-22-3.4-30.2-3.3-17.5-9.4-18.7-14.4-17.7-5.4 1-9.5 4.2-12.4 9.5-3.7 6.7-5 17.3-3.3 26.4 0.9 4.4 4 9 6.1 9.3 0 0 0.6 1.1-1.1 1.4-1.9 0.3-5.9 0.3-9.1-1.7-2.5-1.5-5.7-4.7-6.9-11-1.9-10.1 1.8-21.2 9.5-28.9 5.4-5.5 12-9 19.6-10.5 12.7-2.3 21 4.1 24 18.7 1.5 7.3 2.6 16 3.1 23.6q0.4 4.8 0.6 9.4c1.7-3.5 3.5-7.2 5.1-10.8 2.5-6 5.9-14.4 9.3-26.7-0.7-10.3 0.1-11.2 0.6-11.7l9-6.2c0 0 0.8-0.5 1.2 0.3 0.7 1.2 0.4 2 0.4 2-1.3 6.5 0.7 20.5 1.9 28.8 0.4 2.4 0.7 4.5 1 6.4 1 6.3 1.6 10.5 3 15.8 3.1-5.7 5.8-11.6 11.1-24.7 4.2-10.3 5.9-16.9 5.5-20.8-0.2-2.9-2.7-5.2-6.3-7.4l-1.7-1c-0.9-0.5 0.1-1.5 0.1-1.5l1.5-1.1 7.5-6.9h0.5c2.3-0.1 3.5 4.4 3.8 6.3 2 10.3-2.3 27.2-7.1 38.6-5 11.9-10.1 20.3-15.9 29.9l-2.4 4c-1.4 2.3-2.3 3.7-3.7 3.7-2 0.2-2.4-2.3-3-5.6-1.7-8.9-2.9-15.2-3.9-22.2-0.4-2.3-1.2-7.2-1.8-13-2 5.9-4.7 12.1-7.2 17.6z" />
		<path d="m283.9 334.5c0.6 1.1-0.4 2.3-0.8 2.8q-0.4 0.4-0.8 1c-1.8 2.2-4 4.9-8.8 6-4.5 1.2-8.7 1.6-13.1 1.4q-1.4 0-2-0.9c-0.5-0.9 0-1.9 0.2-2.2 1.7-2.9 3.9-5.9 5.7-8.2 0.9-1.3 0.7-10.6 0.6-17.3-0.1-3.4-0.1-6.8-0.1-10 0-8.2 0.2-14.6 0.6-19.8-3.9 7.8-7.5 17.1-10.7 25.4-6.5 17.6-12.2 29.5-15.3 34.8-1.7 2.6-2.7 3.7-3.7 3.9-0.5 0.1-1 0-1.4-0.3-0.8-0.6-0.9-1.7-1-3.4q0-0.8-0.1-1.6c-1.1-13.2-3.1-22.1-4.7-28.5-2.1-8.3-4.6-15.5-7.2-20.9-0.1 9.4-1.5 19.3-4.1 28.1-4.3 15-8.6 23.9-14.8 30.5-5.1 5.6-11 9.1-17 10.2-1.3 0.3-2.6 0.4-3.7 0.4-3 0-5.3-0.8-5.7-2.1l-0.2-0.4 4.9-12 1.3 1.2c2.5 2.3 7.6 3.2 10.8 2.5 1.9-0.3 4.3-1 6.4-3.1 4.1-4.2 7.8-12.8 11.8-27.2 4.2-15.1 6.8-34 4.2-36.7-3.7-3.2-7.7-3-11.5-2.3-3.6 0.7-7.5 2.6-9.8 4.9-5.1 4.9-7 13.3-5.3 22.6 1.4 7.2 4.2 11.3 7.9 11.6 1 0 1.8 0.7 1.9 1.7 0 1-0.7 1.8-1.7 2-2.3 0.4-6.3-0.1-10-2.2-3.1-1.9-7.2-5.5-8.5-12.4-2-10.5 2.2-19.6 12.5-27.1 4.2-3.2 9.4-5.2 16.3-6.5 11.9-2.2 20.3 1.5 25.9 11.3 3.4 6.2 6.4 15.7 8.8 27.6 0.7 3.6 1.3 6.4 1.6 8.8 1-2.5 2-5.1 3.2-8.2 1.2-3.4 2.8-7.5 4.8-12.7 5.6-13.8 9.3-23 15.4-33.1 2.4-4 5.1-6.3 8.7-7.5l0.3-0.1c1.5-0.6 4.1-1.5 5.1-1.8 1-0.3 2 0.2 2.3 1.1 0.4 1.1-0.1 2.2-1.2 2.6-1.4 0.6-1.7 1.5-2.3 4.2-1.2 4.9-1.5 10.8-1.7 15.9-0.1 3.8-0.2 6.9-0.3 9.7-0.1 4.6-0.2 8.3-0.6 12.4-0.9 12.2-4.1 18.4-7.9 24.1 2.2 0.1 7.1-0.1 12.5-0.9q1.7-0.3 2.3 0.7z" />
		<path d="m358.8 272.6l0.4 1.6c-3.3 4.7-8.6 8.1-16.9 11.6h-0.2c-0.5 4-0.7 6.9-1 12-0.4 6.9-0.4 11.6-0.1 15.4 0.4 3.4 1.1 4.4 1.5 4.7 0.2 0.1 0.4 0.2 1.1 0.1 1.7-0.4 6.9-5 9.8-10.7 0 0 0.5-1 1.3 0.2 0.9 1.1 0.3 1.5 0.3 1.5-2.5 8.3-11.3 18.5-17.5 19.7-0.5 0.1-1.1 0.2-1.8 0.2-1 0-2.1-0.2-3.1-1-1.7-1.2-2.7-3.6-3.2-7.5-0.2-1.7-0.3-4.3-0.4-7.3-0.9 1.4-2.1 3.1-3.5 5.1l-0.5 0.7c-3.9 5.8-9.2 11.1-14.1 14.3-3.6 2.2-7.4 3.4-10.9 3.4-1.9 0-3.7-0.4-5.4-1.1-2.6-1.2-6-3.9-7.1-10-1.8-9.9 1-18.4 2.9-22.5 2.9-6.8 6.4-10.5 9.4-13.2 4.4-3.9 8.6-5.9 12.5-6.1 3.9-0.2 6.6 2.4 7.2 6.5 0.9 6.6-2.1 11.7-9.5 16.5-3.1 2-7.7 4.1-11.6 5.2 0 1.9 0 6 0.6 9.3 0.5 2.4 1.6 4.2 3.3 5.1 1.9 1.1 4.6 1 7.3-0.1 6.7-2.9 15-13.2 18.6-19.3q0.4-0.8 0.8-1.6c0.1-2 0.1-4 0.2-6 0.3-4.9 0.4-7.6 0.9-11.3-2.1 0.4-5.5 1.1-5.5 1.1l-0.9-2c10.2-5.5 13.3-10.1 17.6-17.9 0.6-1.1 0.8-1.5 1.1-2.2l2 0.5c0 0.3 0 0.7-0.2 1.3-0.6 3.2-1.4 8.2-1.6 10.2q0.2-0.1 0.5-0.1c0.6-0.1 1.6-0.3 1.9-0.4 2.4-0.6 9.7-2.5 13.8-5.9zm-60.2 34c2.3-0.3 4.5-0.9 6.7-2.4 3.1-2.1 4.2-4.9 3.7-9.2-0.1-0.9-0.6-4-2.2-4q0 0-0.1 0c-0.6 0.1-2.1 0.3-3.6 2.2-2.2 2.7-4.1 8.6-4.5 13.4z" />
		<path d="m233.6 235c-1.8-9.7 0.8-18.5 2.5-22.8 2.8-7.2 6.1-11.4 9-14.5 4.1-4.5 8.1-7.2 11.8-7.9 1.7-0.4 3.3-0.1 4.5 0.8 1.4 1 2.4 2.7 2.7 4.8 0.8 6.4-1.9 11.9-8.9 17.7-3 2.5-7.4 5.3-11.1 6.9-0.1 1.8 0 6.1 0.6 9.3q0.6 3.5 2.9 4.5c1.8 0.8 4.4 0.4 7-1.2 0.2-0.1 5.8-3.2 8.8-12.1l1.1-2.8c0 0 0.2-0.8 1.5-0.4 1.2 0.4 2.5 0.6 1.4 3.8-0.2 0.9-2.9 11.1-11.2 18.3-3.9 3.4-8.3 5.2-12.2 5.2q-1.9 0-3.6-0.6c-2.5-0.8-5.7-3.1-6.8-9zm10.6-20.4c2.1-0.6 4.1-1.5 6.2-3.3 3-2.7 4.1-5.6 3.5-9.9-0.2-1.7-0.7-2.9-1.2-3.4q-0.3-0.1-0.5-0.1-0.1 0-0.2 0c-0.6 0.1-2.1 0.6-3.6 2.8-2 3-3.8 9.1-4.2 13.9z" />
		<path d="m370.2 199.6c-0.3 0.9-3 11.1-11.2 18.3-4 3.4-8.4 5.2-12.3 5.2q-1.9 0-3.6-0.6c-2.5-0.8-5.7-3.1-6.8-9-0.6-3.2-0.7-6.3-0.5-9.1-5 2.4-7.9 1.3-9.4-0.3-0.4-0.4-0.9-1.2-1.4-2q-0.9 1.5-1.9 3.1c-2.8 4.9-5.6 9.2-7.8 12.6-2.8 4.3-5 7.7-5.5 9.4l-0.1 0.4-9.7 6.2-0.1-2.2c0-2.1-0.9-8.1-1.8-14.5-0.3-2.5-0.7-5-1-7.4-0.4-3.1-0.8-5.8-1.1-8-0.3-2.8-0.6-4.8-0.8-5.6-0.1-0.7-0.3-1.8-0.5-2-1.1 0.3-5.2 2.9-6.1 3.9l-1.7-1.7c1.7-2.4 7-8.4 9.8-11 2.9-2.6 5-4 6.5-4.3 1-0.1 1.6 0.2 2 0.4 0.9 0.7 1.2 2 1.3 2.9 0.1 1.4 0.3 3.3 0.5 5.5 0.2 3.2 0.6 7.3 1.1 12 0.7 5.6 1.4 10.9 2.2 14.6q0.5-0.8 1.1-1.6c2.2-3.2 4.5-6.5 6.7-10.3 1.6-2.7 2.7-5.1 3.4-7.4 0.5-1.6 0.5-3.3 0.1-4.9-1.7-7.1-1.7-11.9-0.2-15.1 0.7-1.3 2.1-2.4 3.8-2.9 1.7-0.4 3.5-0.2 4.8 0.7 4.5 2.9 2.5 10.6 1.4 14.7q-0.2 0.8-0.3 1.3-0.4 1.4-0.7 2.7c-1.1 4-1.4 5.7 0.3 7 0.5 0.4 2.4 0 6.1-3.3 0.6-2.7 1.4-5 2.1-6.7 2.7-7.1 6-11.3 8.9-14.4 4.1-4.5 8.1-7.2 11.8-7.9 1.7-0.4 3.3-0.1 4.6 0.8 1.3 1 2.3 2.7 2.6 4.8 0.8 6.4-1.9 11.8-8.9 17.7-2.9 2.5-7.4 5.3-11.1 6.9-0.1 1.8 0 6.1 0.6 9.3q0.7 3.5 2.9 4.5c1.8 0.8 4.4 0.4 7.1-1.2 0.1-0.1 5.7-3.2 8.7-12.2l1.1-2.7c0 0 0.3-0.9 1.5-0.4 1.2 0.4 2.6 0.6 1.5 3.8zm-23.3-6.5c2.2-0.6 4.1-1.6 6.2-3.4 3-2.6 4.1-5.5 3.5-9.8-0.2-1.7-0.6-2.9-1.2-3.4q-0.2-0.1-0.5-0.1-0.1 0-0.2 0c-0.6 0.1-2.1 0.6-3.6 2.8-2 3-3.8 9.1-4.2 13.9z" />
		<path d="m270.6 188.5c5-3.9 7.2-8.9 7.5-13.2-3 0.5-5.6-0.9-6.3-4.6-0.7-3.6 1.5-6.7 5.1-7.4 3.3-0.6 5.7 1.1 6.4 5 1.4 7.8-3.6 16.3-12 21.2-0.8 0.3-1.4-0.4-0.7-1z" />
	</g>
</svg>