<?xml version="1.0" encoding="UTF-8"?>
<svg width="1200pt" height="1200pt" version="1.1" viewBox="0 0 1200 1200" xmlns="http://www.w3.org/2000/svg">
 <path d="m36.195 197.6-0.09375 0.085938-0.10156 0.097656c-0.75 0.70312-1.4961 1.4219-2.2266 2.1562-17.848 17.848-27.875 42.059-27.875 67.297v664.03c0 25.238 10.027 49.445 27.875 67.297l0.003906 0.003906c17.863 17.859 42.066 27.879 67.301 27.879h996.34c25.238 0 49.445-10.023 67.305-27.883 17.848-17.848 27.875-42.055 27.875-67.297v-664.02c0-25.238-10.027-49.449-27.875-67.297-0.63672-0.63672-1.2852-1.2656-1.9375-1.8828-0.25-0.23828-0.50391-0.47656-0.75781-0.70703-17.562-16.238-40.621-25.293-64.609-25.293h-996.35c-24.113 0-47.285 9.1484-64.879 25.543zm694.73 424.95-106.38 90.66c-14.578 12.422-36.02 12.422-50.594 0l-106.38-90.66-325.91 325.9h915.16zm-647.02 273.37 324.13-324.12-324.13-276.25zm706.58-324.12 324.13 324.12v-600.37l-324.13 276.24zm257.25-321.73h-896.95l448.48 382.22z" fill-rule="evenodd"/>
</svg>
