<svg version="1.1" viewBox="0 0 512 512" width="512" height="512" xmlns="http://www.w3.org/2000/svg" xmlns:svg="http://www.w3.org/2000/svg">
  <path fill="#cbc4cc" d="M 232.9121,0 C 217.50937,0 205.39257,12.663667 205.39257,28.066405 V 46.097656 A 216,216 0 0 0 143.60546,71.701169 L 130.74023,58.904294 C 120.20445,48.346237 101.76059,48.358566 91.191402,58.894467 L 58.693358,91.380794 c -5.212206,5.201072 -8.185549,12.395546 -8.185549,19.746096 0,7.45078 2.883088,14.46844 8.162109,19.73632 l 12.896484,12.95508 A 216,216 0 0 0 46.093748,205.40423 H 27.853514 C 12.439643,205.40412 0,217.78887 0,233.15819 v 45.93945 c 0,15.4139 12.439643,27.52149 27.853514,27.52149 H 46.099606 A 216,216 0 0 0 71.61328,368.2578 l -12.964845,13.04689 c -5.279033,5.26779 -8.173829,12.31737 -8.173829,19.77929 0,7.46192 2.905935,14.51138 8.173829,19.77928 l 32.521484,32.50976 c 5.279024,5.26791 12.283601,8.16408 19.734371,8.16408 7.45079,0 14.46707,-2.90732 19.7461,-8.16408 l 13.10351,-12.98045 a 216,216 0 0 0 61.63867,25.50977 v 18.27734 c 0,15.40271 12.1168,27.82031 27.51953,27.82031 h 45.97461 c 15.40273,0 27.70898,-12.4176 27.70898,-27.82031 v -18.19921 a 216,216 0 0 0 61.63867,-25.44337 l 12.82617,12.79295 c 5.27902,5.2902 12.29446,8.18555 19.76757,8.18555 7.46192,0 14.48992,-2.90729 19.75782,-8.16405 l 32.51955,-32.48829 c 5.26783,-5.25675 8.15346,-12.28361 8.17576,-19.73438 0,-7.46189 -2.91897,-14.46709 -8.17576,-19.74607 l -12.7344,-12.88087 a 216,216 0 0 0 25.60354,-61.88281 h 17.95895 c 15.40275,0 28.06643,-12.10759 28.06643,-27.52149 v -45.93945 c 0.0113,-15.36932 -12.64017,-27.7539 -28.043,-27.7539 h -18.05075 a 216,216 0 0 0 -25.54103,-61.69531 l 12.77541,-12.80274 c 5.2679,-5.26789 8.16211,-12.29589 8.16211,-19.75781 0,-7.45078 -2.91639,-14.489337 -8.16211,-19.746089 L 420.61911,58.916014 C 410.07226,48.357953 391.64102,48.368332 381.13865,58.904297 L 368.31444,71.650391 A 216,216 0 0 0 306.59569,46.093748 V 28.066405 C 306.59569,12.663667 294.28944,0 278.88671,0 Z m 23.08789,94.999997 A 160.99999,160.99999 0 0 1 416.99998,255.99999 160.99999,160.99999 0 0 1 255.99999,416.99998 160.99999,160.99999 0 0 1 94.999997,255.99999 160.99999,160.99999 0 0 1 255.99999,94.999997 Z" />
  <g>
    <path fill="#f37c7c" d="m 256,125 c -72.3493,0 -131,58.65068 -131,130.99995 0,72.34927 58.65069,130.99995 131,130.99995 9.57722,-0.004 19.12518,-1.0574 28.47266,-3.14256 L 344,408.99988 c 0.35811,0.15118 1,-0.21128 1,-0.6 v -56.27692 c 26.77728,-24.7925 41.99947,-59.63068 42,-96.12301 C 387,183.65067 328.3493,125 256,125 Z" />
    <path fill="#ee6161" d="M 256.00004,125 A 131.00002,131 0 0 0 125,256.00002 131.00002,131 0 0 0 256.00004,387 131.00002,131 0 0 0 281.209,384.541 131.00002,131 0 0 1 175.00002,256.00002 131.00002,131 0 0 1 281.209,127.459 131.00002,131 0 0 0 256.00004,125 Z" />
  </g>
  <g>
    <path fill="#ffffff" d="m 255.90994,163.90003 a 53.724956,53.72726 0 0 0 -53.72494,53.72727 15.349988,15.350645 0 0 0 30.69997,0 23.024982,23.025968 0 1 1 23.02497,23.02597 15.349988,15.350645 0 0 0 -15.34998,15.35063 v 30.70128 a 15.350001,15.350658 0 0 0 30.7,0 v -17.8067 A 53.571456,53.573753 0 0 0 255.90994,163.90003 Z" />
    <circle fill="#ffffff" cx="255.91" cy="332.75" r="15.35" />
  </g>
</svg>