<?xml version="1.0" standalone="no"?>
<!DOCTYPE svg PUBLIC "-//W3C//DTD SVG 20010904//EN"
 "http://www.w3.org/TR/2001/REC-SVG-20010904/DTD/svg10.dtd">
<svg version="1.0" xmlns="http://www.w3.org/2000/svg"
 width="2016.000000pt" height="389.000000pt" viewBox="0 0 2016.000000 389.000000"
 preserveAspectRatio="xMidYMid meet">

<g transform="translate(0.000000,389.000000) scale(0.100000,-0.100000)"
fill="#176FCE" stroke="none">
<path d="M1449 3153 c-191 -238 -279 -475 -279 -753 0 -292 101 -557 300 -788
l45 -52 163 0 c89 0 162 3 162 6 0 3 -28 40 -62 83 -379 470 -379 1028 -1
1493 35 42 63 80 63 83 0 3 -74 5 -164 5 l-164 0 -63 -77z"/>
<path d="M18300 3224 c0 -3 28 -40 62 -83 192 -238 279 -471 279 -746 0 -234
-57 -416 -196 -630 -28 -44 -73 -104 -98 -133 -26 -29 -47 -57 -47 -62 0 -6
64 -10 162 -10 l162 0 24 28 c176 208 271 400 307 623 37 232 -2 495 -105 698
-36 72 -127 207 -183 273 l-42 48 -162 0 c-90 0 -163 -3 -163 -6z"/>
<path d="M4236 3184 c-221 -30 -368 -100 -415 -197 -25 -52 -28 -138 -6 -191
21 -49 82 -106 144 -135 l51 -24 0 -74 0 -73 -145 0 -145 0 0 -115 0 -115 790
0 790 0 0 115 0 114 -142 3 -143 3 -3 70 -3 71 48 23 c115 56 163 123 163 227
-1 138 -93 221 -305 274 -167 41 -476 52 -679 24z m557 -237 c32 -8 67 -23 77
-32 75 -68 -72 -115 -360 -115 -166 0 -280 14 -337 42 -78 36 -42 88 75 107
37 6 78 13 92 15 56 10 397 -3 453 -17z m-93 -417 l0 -40 -190 0 -190 0 0 40
0 40 190 0 190 0 0 -40z"/>
<path d="M3120 2405 l0 -775 -625 0 -625 0 0 -50 0 -50 8200 0 8200 0 0 50 0
50 -85 0 -85 0 0 775 0 775 -155 0 -155 0 0 -775 0 -775 -745 0 -745 0 0 335
0 335 90 0 91 0 -3 153 -3 152 -87 3 -88 3 -2 282 -3 282 -152 3 -153 3 0
-776 0 -775 -705 0 -705 0 0 775 0 775 -155 0 -155 0 -2 -282 -3 -283 -112 -3
-113 -3 0 -149 0 -150 115 0 115 0 0 -340 0 -340 -1865 0 -1865 0 0 775 0 775
-155 0 -155 0 0 -255 0 -255 -165 0 -165 0 0 -145 0 -145 165 0 165 0 0 -375
0 -375 -887 0 -888 1 70 23 c87 28 125 48 171 89 112 97 112 309 2 402 -115
97 -324 145 -631 145 -471 0 -707 -113 -707 -338 0 -84 15 -133 57 -181 43
-50 89 -79 183 -113 l75 -27 -322 0 -322 -1 -3 98 -3 97 -552 3 -553 2 0 25 0
25 545 0 545 0 0 235 0 235 -700 0 -700 0 0 -110 0 -110 545 0 545 0 0 -30 0
-30 -545 0 -545 0 0 -220 0 -220 -337 0 -338 0 68 24 c152 54 217 128 217 246
0 139 -99 224 -311 271 -131 28 -377 42 -557 29 -383 -25 -552 -117 -552 -300
0 -118 65 -192 217 -246 l68 -24 -327 0 -328 0 0 335 0 335 90 0 91 0 -3 153
-3 152 -87 3 -88 3 -2 282 -3 282 -152 3 -153 3 0 -776z m5065 -365 c140 -11
212 -30 244 -64 43 -46 7 -86 -101 -111 -147 -33 -448 -28 -562 11 -43 15 -76
45 -76 69 0 45 100 83 249 95 53 4 103 8 111 8 8 1 69 -3 135 -8z m-3416 -81
c163 -26 163 -92 0 -118 -83 -14 -435 -14 -518 0 -158 25 -163 92 -9 118 75
12 451 13 527 0z"/>
<path d="M6700 3115 l0 -65 -140 0 -140 0 0 -135 0 -134 138 -3 137 -3 3 -187
2 -188 155 0 155 0 0 390 0 390 -155 0 -155 0 0 -65z"/>
<path d="M8467 3173 c-4 -3 -7 -24 -7 -45 l0 -38 -80 0 -80 0 0 -130 0 -130
80 0 80 0 0 -55 0 -55 -80 0 -80 0 0 -130 0 -130 80 0 79 0 3 -72 3 -73 150 0
150 0 3 433 2 432 -148 0 c-82 0 -152 -3 -155 -7z"/>
<path d="M5900 3148 c-1 -48 -31 -163 -58 -222 -42 -89 -128 -178 -214 -221
-39 -19 -79 -35 -89 -35 -48 0 -49 -4 -49 -147 l0 -135 53 7 c173 22 326 95
438 210 l47 47 190 -121 c104 -67 192 -121 194 -121 7 0 148 187 153 203 3 7
-76 61 -188 130 -106 64 -197 121 -204 125 -9 6 -8 23 8 72 11 35 22 96 26
136 l6 72 -74 6 c-255 19 -239 20 -239 -6z"/>
<path d="M7290 2770 l0 -390 470 0 470 0 -2 388 -3 387 -467 3 -468 2 0 -390z
m630 -5 l0 -135 -160 0 -160 0 0 135 0 135 160 0 160 0 0 -135z"/>
<path d="M2376 3003 c-17 -325 -68 -566 -158 -752 -62 -129 -139 -213 -212
-233 l-46 -12 0 -158 0 -158 38 0 c182 1 380 158 493 393 13 26 26 47 30 47 5
0 73 -97 154 -214 80 -118 149 -217 154 -221 5 -3 66 34 134 82 l125 88 -18
25 c-10 14 -109 153 -220 310 -112 157 -205 292 -207 300 -2 9 5 78 17 155 27
188 39 463 19 476 -8 5 -78 9 -155 9 l-141 0 -7 -137z"/>
<path d="M9416 3094 c-3 -26 -6 -81 -6 -123 0 -156 -38 -408 -86 -571 -59
-198 -164 -351 -262 -381 l-42 -12 0 -159 0 -158 38 0 c171 0 362 157 482 399
23 46 45 79 49 75 4 -5 70 -114 146 -241 75 -128 140 -233 143 -233 8 0 253
153 258 161 2 4 -97 168 -221 363 l-225 356 15 117 c9 65 18 190 22 279 l6
161 -24 6 c-13 4 -83 7 -155 7 l-131 0 -7 -46z"/>
<path d="M11390 2665 l0 -475 270 0 270 0 0 -115 0 -115 -315 0 -315 0 0 -145
0 -145 790 0 790 0 0 145 0 145 -315 0 -315 0 0 115 0 115 273 2 272 3 3 473
2 472 -155 0 -155 0 0 -100 0 -100 -400 0 -400 0 0 100 0 100 -150 0 -150 0 0
-475z m1100 -95 l0 -100 -400 0 -400 0 0 100 0 100 400 0 400 0 0 -100z"/>
<path d="M13120 3000 l0 -140 270 0 270 0 0 -155 0 -155 -270 0 -270 0 0 -430
0 -430 358 0 c375 0 496 10 598 47 l49 19 3 138 3 138 -23 -6 c-163 -47 -364
-70 -568 -64 l-105 3 -3 158 -3 157 271 0 270 0 0 430 0 430 -425 0 -425 0 0
-140z"/>
<path d="M14870 3000 l0 -140 286 0 287 0 -6 -172 c-6 -198 -26 -295 -86 -418
-45 -92 -142 -195 -221 -233 -58 -28 -172 -57 -227 -57 l-33 0 0 -145 0 -145
64 0 c120 0 285 47 392 111 117 71 244 209 308 336 95 190 126 379 126 781 l0
222 -445 0 -445 0 0 -140z"/>
<path d="M16650 3000 l0 -140 291 0 292 0 -6 -172 c-4 -132 -10 -192 -26 -252
-71 -267 -243 -427 -484 -452 l-67 -7 0 -143 0 -144 58 0 c116 0 257 37 373
97 147 76 268 204 348 367 97 196 121 336 121 719 l0 267 -450 0 -450 0 0
-140z"/>
</g>
</svg>
