<svg version="1.2" width="512" height="512" viewBox="0 0 135.46666 135.46667" xmlns="http://www.w3.org/2000/svg" xmlns:svg="http://www.w3.org/2000/svg">
   <path fill="#ea4335" d="M 222.9,237.8 24.4,470.17 c 7.22,24.57 30.16,41.81 55.8,41.81 11.16,0 20.93,-2.79 29.3,-8.37 v 0 L 353.66,364.15 Z" id="path3953" transform="matrix(0.2335866,0,0,0.2335866,11.516127,7.9374999)" />
   <path fill="#fbbc04" d="m 456.91,205.1 v 0 l -104.65,-60 -111.61,110.22 113.01,108.83 104.64,-58.6 c 18.14,-9.77 30.7,-29.3 30.7,-50.23 -1.4,-20.93 -13.95,-40.46 -32.09,-50.22 z" id="path3955" transform="matrix(0.2335866,0,0,0.2335866,11.516127,7.9374999)" />
   <path fill="#34a853" d="M 222.42,273.45 352.27,145.1 110.9,8.37 C 102.53,2.79 91.36,0 80.2,0 53.7,0 29.98,18.14 24.4,41.86 c 0,0 0,0 0,0 z" id="path3957" transform="matrix(0.2335866,0,0,0.2335866,11.516127,7.9374999)" />
   <path fill="#4285f4" d="M 24.39,41.86 C 23,46.04 23,51.63 23,57.2 v 397.64 c 0,5.57 0,9.76 1.4,15.34 L 240.67,255.32 Z" id="path3959" transform="matrix(0.2335866,0,0,0.2335866,11.516127,7.9374999)" />
</svg>