<?xml version="1.0" standalone="no"?>
<!DOCTYPE svg PUBLIC "-//W3C//DTD SVG 20010904//EN"
 "http://www.w3.org/TR/2001/REC-SVG-20010904/DTD/svg10.dtd">
<svg version="1.0" xmlns="http://www.w3.org/2000/svg"
 width="512.000000pt" height="512.000000pt" viewBox="0 0 512.000000 512.000000"
 preserveAspectRatio="xMidYMid meet">

<g transform="translate(0.000000,512.000000) scale(0.100000,-0.100000)"
fill="#000000" stroke="none">
<path d="M880 5105 c-456 -80 -801 -434 -869 -892 -15 -100 -15 -3206 0 -3306
70 -467 429 -826 896 -896 100 -15 3206 -15 3306 0 467 70 826 429 896 896 15
100 15 3206 0 3306 -70 467 -429 826 -896 896 -114 17 -3235 13 -3333 -4z
m3375 -306 c28 -9 75 -27 105 -39 214 -91 382 -290 441 -520 21 -82 21 -3278
0 -3360 -70 -274 -287 -491 -561 -561 -82 -21 -3278 -21 -3360 0 -232 59 -429
227 -522 446 -56 133 -53 38 -53 1795 0 1757 -3 1662 53 1795 93 220 305 400
522 444 30 6 64 13 75 15 11 2 747 3 1635 2 1440 -1 1620 -3 1665 -17z"/>
<path d="M2472 4506 c-96 -32 -170 -108 -199 -206 -35 -120 10 -754 82 -1165
14 -76 25 -145 25 -152 0 -7 -19 -22 -42 -34 -56 -29 -147 -123 -177 -183 -32
-66 -51 -141 -51 -206 l0 -55 -108 -39 c-343 -124 -866 -369 -1050 -491 -81
-55 -142 -186 -128 -279 27 -177 197 -297 366 -256 127 31 644 379 981 662
l117 97 64 -34 c132 -70 284 -70 416 0 l64 34 117 -97 c337 -283 854 -631 981
-662 169 -41 339 79 366 256 14 93 -47 224 -128 279 -184 122 -707 367 -1050
491 l-108 39 0 55 c0 65 -19 140 -51 206 -30 60 -121 154 -177 183 -23 12 -42
27 -42 34 0 7 11 76 25 152 56 318 86 647 89 960 1 185 -1 203 -20 246 -28 60
-94 126 -152 151 -58 26 -154 32 -210 14z m158 -1816 c45 -23 80 -80 80 -130
0 -17 -9 -49 -20 -70 -23 -45 -80 -80 -130 -80 -50 0 -107 35 -130 80 -25 50
-25 90 0 140 37 73 124 99 200 60z"/>
<path d="M2010 4440 c-332 -100 -612 -270 -855 -521 -161 -166 -268 -320 -363
-517 -189 -397 -239 -848 -142 -1272 12 -52 24 -105 27 -118 7 -30 13 -27 63
36 24 32 73 74 118 103 42 28 78 52 79 53 2 1 -4 40 -12 87 -23 128 -30 301
-16 430 53 490 296 906 696 1194 92 67 310 180 401 209 l51 17 6 92 c4 80 17
133 52 220 9 21 10 21 -105 -13z"/>
<path d="M3005 4454 c35 -89 48 -140 52 -221 l6 -92 51 -17 c91 -29 309 -142
401 -209 400 -288 643 -704 696 -1194 14 -129 7 -302 -16 -430 -8 -47 -14 -86
-12 -87 1 -1 37 -25 79 -53 45 -29 94 -71 118 -103 50 -63 56 -66 63 -36 3 13
15 66 27 118 129 562 -3 1159 -359 1625 -68 90 -235 258 -331 335 -200 159
-446 287 -670 349 -40 11 -81 23 -92 27 -18 5 -20 3 -13 -12z"/>
<path d="M1363 1293 c-40 -22 -94 -41 -148 -52 l-85 -17 82 -80 c153 -148 313
-259 500 -349 737 -354 1612 -215 2196 349 l82 80 -84 17 c-54 11 -111 31
-155 55 l-70 37 -36 -29 c-189 -151 -392 -264 -575 -322 -412 -130 -842 -101
-1225 83 -123 59 -226 124 -330 208 -38 31 -74 56 -80 56 -5 0 -38 -16 -72
-36z"/>
</g>
</svg>
