<?xml version="1.0" standalone="no"?>
<!DOCTYPE svg PUBLIC "-//W3C//DTD SVG 20010904//EN"
 "http://www.w3.org/TR/2001/REC-SVG-20010904/DTD/svg10.dtd">
<svg version="1.0" xmlns="http://www.w3.org/2000/svg"
 width="2516.000000pt" height="701.000000pt" viewBox="0 0 2516.000000 701.000000"
 preserveAspectRatio="xMidYMid meet">

<g transform="translate(0.000000,701.000000) scale(0.100000,-0.100000)"
fill="#176FCE" stroke="none">
<path d="M6706 5622 c-113 -615 -519 -1090 -1006 -1178 -41 -7 -94 -13 -117
-14 l-43 0 0 -265 0 -265 43 0 c71 0 206 19 316 45 336 81 674 296 909 579 41
50 76 93 78 95 2 2 257 -159 566 -357 310 -199 571 -364 579 -367 12 -5 30 15
70 77 29 46 95 147 146 225 l92 142 -582 350 c-320 193 -590 356 -600 363 -18
13 -18 16 4 68 54 136 142 480 126 496 -2 3 -119 23 -258 45 -140 21 -266 42
-280 45 -26 5 -27 4 -43 -84z"/>
<path d="M20780 5535 l0 -175 -325 0 -325 0 0 -255 0 -255 326 0 327 0 -7 -97
c-44 -634 -308 -1112 -651 -1183 l-55 -11 0 -276 0 -275 73 7 c342 32 619 211
842 545 35 52 71 112 81 133 10 20 21 37 26 37 4 0 132 -156 284 -347 152
-192 282 -354 288 -361 9 -10 56 26 219 169 131 114 205 185 200 192 -4 7
-184 223 -401 480 l-394 469 16 106 c14 102 33 281 39 367 l2 40 313 3 312 2
0 255 0 255 -310 0 -310 0 0 175 0 175 -285 0 -285 0 0 -175z"/>
<path d="M4580 4295 l0 -1405 -1215 0 -1215 0 0 -90 0 -90 10450 0 10450 0 0
90 0 90 -150 0 -150 0 0 1405 0 1405 -280 0 -280 0 0 -1405 0 -1405 -1290 0
-1290 0 0 185 0 185 -997 2 -998 3 -3 53 -3 52 985 0 986 0 0 415 0 415 -1260
0 -1260 0 0 -190 0 -190 985 0 985 0 0 -55 0 -55 -985 0 -985 0 0 -410 0 -410
-750 0 -750 0 0 600 0 600 -275 0 -275 0 0 -85 0 -85 -735 0 -735 0 0 85 0 85
-270 0 -270 0 0 -600 0 -600 -3945 0 -3945 0 0 1405 0 1405 -265 0 -265 0 0
-1405z m10430 -895 l0 -90 -735 0 -735 0 0 90 0 90 735 0 735 0 0 -90z"/>
<path d="M13287 5684 c-358 -65 -545 -352 -524 -807 7 -159 24 -232 84 -356
80 -168 233 -287 418 -326 90 -19 270 -19 360 0 219 46 389 204 463 431 46
142 54 401 17 564 -37 167 -142 325 -269 404 -149 94 -348 126 -549 90z m235
-451 c63 -38 98 -142 98 -293 0 -198 -52 -303 -157 -317 -85 -11 -148 47 -179
167 -24 94 -16 276 15 345 24 55 55 93 86 105 35 15 106 11 137 -7z"/>
<path d="M15030 5470 l0 -230 -115 0 -115 0 0 225 0 225 -255 0 -255 0 0 -735
0 -735 255 0 255 0 0 245 0 245 115 0 115 0 0 -260 0 -260 265 0 265 0 0 755
0 755 -265 0 -265 0 0 -230z"/>
<path d="M19020 5585 l0 -115 -252 -2 -253 -3 -3 -242 -2 -243 255 0 255 0 0
-340 0 -340 280 0 280 0 0 700 0 700 -280 0 -280 0 0 -115z"/>
<path d="M3880 5155 l0 -534 -127 -3 -128 -3 0 -260 0 -260 125 -5 125 -5 3
-577 2 -578 255 0 255 0 0 1380 0 1380 -255 0 -255 0 0 -535z"/>
<path d="M17572 5580 c-43 -379 -267 -675 -592 -778 -36 -11 -84 -24 -107 -27
l-43 -7 0 -244 0 -244 28 0 c15 0 70 7 122 15 280 42 541 172 742 367 50 49
92 88 95 88 2 0 153 -95 336 -212 183 -116 339 -213 347 -215 18 -5 296 365
284 377 -5 4 -171 108 -369 230 -198 122 -361 223 -362 224 -2 2 8 36 22 77
31 89 65 279 65 360 0 32 -1 59 -2 60 -2 0 -127 8 -279 17 l-276 17 -11 -105z"/>
<path d="M2350 4320 l0 -1310 373 0 c506 0 744 19 932 72 l80 23 3 239 c2 224
1 238 -15 231 -121 -48 -411 -85 -668 -85 l-175 0 0 305 0 305 300 0 300 0 0
235 0 235 -300 0 -300 0 0 295 0 295 360 0 360 0 0 235 0 235 -625 0 -625 0 0
-1310z"/>
<path d="M8810 4690 l0 -940 1285 0 1285 0 0 245 0 245 -1010 0 -1010 0 0 110
0 110 970 0 970 0 0 230 0 230 -970 0 -970 0 0 110 0 110 995 0 995 0 0 245 0
245 -1270 0 -1270 0 0 -940z"/>
<path d="M5480 3240 l0 -260 1425 0 1425 0 0 260 0 260 -1425 0 -1425 0 0
-260z"/>
<path d="M8650 3235 l0 -255 1425 0 1425 0 0 255 0 255 -1425 0 -1425 0 0
-255z"/>
</g>
</svg>
