<svg version="1.2" xmlns="http://www.w3.org/2000/svg" viewBox="0 0 260 63" width="260" height="63">
	<path d="m69.3 0.2h8l-4.5 29.7c-0.3 1.6-1.7 2.8-3.5 2.8h-3.3l1.4-9c-7.2 3.2-15.2 4.3-20.5 4.6-3.3 0.2-5.9-2.6-5.4-5.8l1.5-9.2h13.3l1.2-7.7h-13.1l0.7-4.1c2.2 0.3 6.1 0.5 8.4 0.5h2.4c2.5 0 6.6-0.2 8.5-0.5l-2.3 15.4h-13.3l-0.9 5.3c-0.2 1.4 0.9 2.7 2.3 2.6 4.1-0.2 12-1 17.6-3.6l2.8-18.9c0.2-1.8-1.4-1.8-1.4-1.8l0.1-0.3z" />
	<path d="m208.2 0.2l-4.5 29.7c-0.3 1.6-1.7 2.8-3.5 2.8h-2.8l5-32.5c0 0 5.8 0 5.8 0z" />
	<path d="m199.9 0.2l-4.5 29.8c-0.3 1.6-1.7 2.7-3.5 2.7h-2.8l1.3-8.1c-4.7 2.1-10.6 3-15 3.3-3.2 0.3-5.9-2.6-5.4-5.8l3.1-20.7c2 0.4 4.3 0.5 6.5 0l-3 20.2c-0.3 1.5 0.9 2.6 2.5 2.7 3.2 0.3 8.4-0.6 11.6-2.3l1-6.2h-6.9l0.5-3.6h6.9l1.6-10.4c-0.2-1.3-1.4-1.3-1.4-1.3l0.1-0.3c0 0 7.4 0 7.4 0z" />
	<path d="m169.2 7.9l-0.6 3.6h-4.2l-0.7 4.6c-0.2 1.6-1.7 2.7-3.4 2.7h-3.3l0.6-4.1c-7.5 2.3-14.3 2.9-18.8 3-3.2 0-5.6-2.7-5.1-5.8l1.6-11c2 0.5 4.4 0.5 6.5 0l-1.6 10.4c-0.2 1.4 0.8 2.5 2.2 2.7 4.6 0.7 10.4 0.6 15.6-1.6l1.4-9.8c0.3-2.1-1.4-2.1-1.4-2.1l0.1-0.3h8l-1.1 7.7z" />
	<path d="m156.5 24.5l6.6 4.8c0 0-2.4 0.5-3.8 2.8l-4.7-5.2c-2.7 2.5-7.6 5.5-14.1 6.5l-0.4-0.5c2.2-0.8 4.2-1.8 5.8-3l-1.9-2.4c-2.7 2.6-7.1 4.9-13.5 5.9l-0.5-0.5c6.7-2.3 10.9-6.8 11.6-11.4l0.1-1.2c1.7 0.3 4.9 0.3 6.6 0-0.5 1.8-1 3.2-2.2 4.8l2.7 2.2c1.5-1.8 2.5-3.8 2.8-5.8l0.2-1.2c1.6 0.3 4.8 0.3 6.6 0l-0.2 0.8q-0.4 1.4-1.2 2.7c-0.1 0.3-0.3 0.6-0.5 0.7z" />
	<path d="m96.3 27.2l0.7-4.4c2.1 0.2 4.1 0.2 6.3 0l-0.6 4c-0.2 1.4 0.8 2.7 2.2 3 4 1 14.6 0.9 20.9-3.8l0.5 1.1c0 0-9.3 8-25.7 5.8-2.8-0.3-4.7-3-4.3-5.7z" />
	<path fill-rule="evenodd" d="m96.9 20.4c-2.9-0.3-4.7-2.5-4.3-5.1l2.2-14.2c2.4 0.4 6.5 0.6 9.1 0.6h2.8c2.6 0 6.8-0.2 9.3-0.6l-0.5 3.2-2 13.9c0 0.2-0.3 0.4-0.5 0.3-1.4-0.4-3.4-0.6-7.8 0.7-2.8 0.9-6.3 1.3-8.3 1.2zm7.3-3.9c1.9-0.5 3.1-1.3 3.2-2.5l1.6-9.1h-8.3l-2 12.1c0 0 3.7-0.1 5.5-0.5z" />
	<path d="m22.6 23l-1.2 7.5c-0.2 1.6-1.7 2.8-3.4 2.8h-3.3l1.3-8.7c-10.7 1.9-15.6-1.2-15.6-1.2l0.7-5.3c0 0 4.3 4.6 20.2 1.4 15.4-3.1 18.2 2.6 18.2 2.6-4-2.3-13.5 0-16.9 0.9z" />
	<path fill-rule="evenodd" d="m6.3 8.9v-0.3c1-6.1 8.8-8 16.5-8h0.3c7.7 0 14.9 1.9 14 8v0.3c-1 6-8.8 7.9-16.5 7.9h-0.3c-7.7 0-14.9-1.9-14-7.9zm14.3 5.9h0.3c4.7 0 8.7-1.8 9.4-5.9v-0.3c0.6-4.2-2.9-5.9-7.5-5.9h-0.3c-4.7 0-8.7 1.8-9.3 5.9l-0.1 0.3c-0.6 4.1 2.9 5.9 7.5 5.9z" />
	<path d="m245.7 28c-4.8-2.9-18.1 1.7-18.1 1.7-14.3 4.1-20.6 0-20.6 0l0.7-5.3c0 0 1.8 2 7.6 2.5l1-6.5c1.7 0.5 3.6 0.9 5.7 1.1l-0.8 5.3c1.9-0.2 4-0.5 6.4-1q1.2-0.2 2.3-0.4l0.6-3.9c2.1-0.2 4.1-0.5 6-1.1l-0.7 4.5c8.2-0.1 9.9 3.1 9.9 3.1z" />
	<path d="m255.2 28.4c-0.2 1.5-1.7 2.7-3.4 2.7-1.6 0-2.7-1.2-2.5-2.7 0.2-1.6 1.7-2.8 3.4-2.8 1.6 0 2.8 1.2 2.5 2.8z" />
	<path d="m255.1 23h-4.4l1.7-21.4c2.1 0.5 5.4 0.5 7.6 0z" />
	<path fill-rule="evenodd" d="m212.3 11.2v-0.3c1.1-6.8 9-8.9 16.7-8.9h0.3c7.8 0 15 2.1 14 8.9v0.3c-1.1 6.8-9 8.9-16.7 8.9h-0.3c-7.8 0-15-2.1-14-8.9zm14.3 6.6h0.3c4.7 0 8.8-1.9 9.5-6.6v-0.3c0.8-4.7-2.7-6.6-7.4-6.6h-0.3c-4.7 0-8.8 2-9.5 6.6v0.3c-0.7 4.6 2.7 6.6 7.4 6.6z" />
	<path d="m127.2 0.2l-1.4 9.3h4.2l-0.5 3.6h-4.2l-1.4 9.1c-0.3 1.6-1.7 2.8-3.5 2.8h-3.3l3.5-22.6c0.1-1.9-1.5-1.9-1.5-1.9l0.1-0.3z" />
	<path d="m59 59.8h7.5l-0.2 1.3h-18.5l0.2-1.3h7.9l0.6-4.3c1.1 0.2 2 0.2 3.1 0z" />
	<path d="m49.9 56l-0.1-0.4c4.3-1 6.8-3.4 7.7-7.3 0.1-1.3-1-1.4-1-1.4l0.1-0.1h1.2 3l-0.1 0.6c-0.1 0.8-0.5 2.3-0.8 3l6.2 3.3c-0.9 0.5-1.7 1.3-2.3 2.4l-4.9-4.1c-2.1 2.5-5 3.7-9 4z" />
	<path d="m79.3 54.9h7.4l-0.2 1.3h-17.9l0.2-1.3h7.5l0.2-1.5h-4.6c-0.8 0-1.4-0.6-1.3-1.3l0.6-4 0.2-1.3c1.2 0.1 3.1 0.2 4.8 0.2h5.1c1.8 0 3.5-0.1 4.6-0.2l-0.2 1.5-11-0.2-0.2 1.5h10.3l-0.2 1.2h-10.3l-0.2 0.9c0 0.1 0 0.6 0.7 0.6h10.3l-0.1 1.1h-5.4z" />
	<path fill-rule="evenodd" d="m84.3 59.6l-0.1 0.1c-0.3 2-3.7 2.7-7.5 2.7h-0.1c-3.8 0-7-0.7-6.7-2.7v-0.1c0.3-1.9 3.7-2.6 7.5-2.6h0.2c3.8 0 7 0.7 6.7 2.6zm-3.1 0c0.2-1.1-1.5-1.7-3.8-1.7h-0.1c-2.2 0-4.1 0.6-4.3 1.7v0.1c-0.2 1.2 1.5 1.8 3.7 1.8h0.2c2.2 0 4.1-0.6 4.3-1.8z" />
	<path fill-rule="evenodd" d="m90.4 49.7l0.1-0.2c0.3-2.4 3.9-3.2 7.8-3.2h0.1c3.9 0 7.2 0.8 6.9 3.2l-0.1 0.2c-0.3 2.3-3.9 3.1-7.8 3.1h-0.1c-3.9 0-7.2-0.8-6.9-3.1zm3.2-0.1c-0.2 1.4 1.6 2.2 3.8 2.2h0.2c2.3 0 4.3-0.8 4.5-2.2v-0.1c0.2-1.4-1.6-2.1-3.8-2.1h-0.2c-2.3 0-4.3 0.7-4.5 2.1z" />
	<path d="m105.6 60l0.1 0.6c-5.4 1.7-9.6 2-14 1.7-1.7-0.1-2.8-1.1-2.6-2.5l0.3-1.4h11.3l0.1-1.1h-11.3l0.2-1.2h14.4l-0.5 3.5h-11.3l-0.2 1c0 0.2 0.2 0.5 0.4 0.5 1.4 0.2 6.4 0.6 13.1-1.1z" />
	<path d="m88.2 53.8h18l-0.2 1.2h-18z" />
	<path d="m134.5 56.9h13.8l-0.7 4.4c-0.1 0.6-0.7 1.1-1.4 1.1h-2.1l0.6-4.1h-10.4z" />
	<path d="m132.4 56.4l-0.1-0.4c3.6-1.7 5.2-3.6 5.8-7.6h-3.7l0.3-1.6c1.3 0.2 3.4 0.3 4.8 0.3h0.7c1.3 0 3.6-0.1 5-0.3l-0.3 1.6h-3.5c-0.1 0.7-0.4 1.5-0.6 2.1l4.3 3.9c-1.1 0.3-2.4 0.9-3.2 1.7l-2-4.1c-1.4 2.1-3.7 3.4-7.5 4.4z" />
	<path d="m149.3 50.1h2l-0.2 1.8h-2.1l-0.5 3.1c-0.1 0.6-0.6 1.1-1.3 1.1h-2.1l1.2-8.2c0.1-1.3-1-1.3-1-1.3l0.1-0.2h4.4z" />
	<path d="m171.5 51.9h-2l-0.4 2.9c-0.1 0.6-0.7 1.1-1.4 1.1h-2.1l1.2-7.9c0.2-1.4-1-1.4-1-1.4l0.1-0.2h4.4l-0.5 3.8h2z" />
	<path fill-rule="evenodd" d="m154 52.2v-0.4c0.3-1.4 1.2-2.4 2.5-2.9h-2.5l0.3-1.4h4l0.2-1.3c0.9 0.2 2.4 0.2 3.5 0l-0.2 1.3h3.9l-0.2 1.4h-2.5c1.1 0.5 1.8 1.5 1.6 2.9l-0.1 0.4c-0.4 2.5-3.1 3.6-5.7 3.6h-0.2c-2.6 0-5-1.1-4.6-3.6zm4.8 2.5h0.2q2.2 0 2.6-2.6v-0.3c0.3-1.7-0.3-2.6-1.8-2.6h-0.2c-1.5 0-2.3 0.9-2.6 2.6l-0.1 0.3c-0.2 1.8 0.4 2.6 1.9 2.6z" />
	<path fill-rule="evenodd" d="m168.8 56.6l-0.7 4.5c-0.1 0.8-0.9 1.4-1.8 1.4h-11.8l0.8-5.9c1.1 0.2 2.3 0.2 3.3 0l-0.2 1.6h6.8l0.3-1.6c1 0.2 2.3 0.2 3.3 0zm-3.8 2.9h-6.8l-0.2 1.7h6.8z" />
	<path d="m209.8 52.7l-0.3 1.7h-2l-1 6.7c-0.1 0.7-0.7 1.1-1.4 1.1h-2.1l0.8-4.9c-1.3 0.6-4.8 2.2-9.1 2.4-1.7 0.1-3.1-1.5-2.8-3.2l1.4-9.4c1.1 0.2 3 0.3 4.1 0.3h1.2c1.2 0 3.4-0.1 4.4-0.3l-0.3 1.8h-6.3l-1.3 7.7c-0.1 0.6 0.4 1.2 1.1 1.2 1.7-0.1 5.1-0.5 7.7-1.7l1.3-8.1c0.1-1.4-1-1.4-1-1.4l0.1-0.2h4.4l-0.9 6.3z" />
	<path d="m212.6 60.6c-0.1 0.8-0.9 1.5-1.7 1.5-0.9 0-1.5-0.7-1.3-1.5 0.1-0.9 0.8-1.5 1.7-1.5 0.9 0 1.4 0.6 1.3 1.5z" />
	<path d="m120.3 52.7l4.6 6c-1 0-2.5 0.6-3.3 1.4l-2.1-5.3c-1.8 2.8-4 4.3-7.8 5.1l-0.2-0.3c4.3-1.7 5.6-4.9 6.9-12v-0.5c0.9 0.2 2.4 0.2 3.3 0v0.5c-0.3 1.8-1 3.8-1.4 5.1z" />
	<path d="m131 46.4l-2.2 14.7c-0.1 0.7-0.7 1.1-1.4 1.1h-2.1l2.1-14.1c0.2-1.5-1-1.5-1-1.5l0.1-0.2z" />
	<path d="m179.3 52.7l4.6 6c-1 0-2.5 0.6-3.3 1.4l-2.1-5.3c-1.8 2.8-3.9 4.3-7.8 5.1l-0.2-0.3c4.3-1.7 5.6-4.9 6.9-12l0.1-0.5c0.9 0.2 2.3 0.2 3.3 0l-0.1 0.5c-0.3 1.8-0.9 3.8-1.4 5.1z" />
	<path d="m190 46.4l-2.2 14.7c-0.1 0.7-0.7 1.1-1.4 1.1h-2.1l2.1-14.1c0.3-1.5-0.9-1.5-0.9-1.5v-0.2z" />
</svg>